<?xml version="1.0" standalone="no"?>
<!DOCTYPE svg PUBLIC "-//W3C//DTD SVG 20010904//EN"
        "http://www.w3.org/TR/2001/REC-SVG-20010904/DTD/svg10.dtd">
<svg version="1.0" xmlns="http://www.w3.org/2000/svg"
     width="1726.000000pt" height="456.000000pt" viewBox="0 0 1726.000000 456.000000"
     preserveAspectRatio="xMidYMid meet">

    <g  transform="translate(0.000000,456.000000) scale(0.100000,-0.100000)"
       fill="#0A3374" stroke="none">

        <g fill="#0A3374">
            <path d="M12477 4478 c37 -46 69 -85 72 -88 3 -3 46 -50 95 -105 353 -397 850
-820 1386 -1181 263 -177 642 -404 673 -404 24 0 -19 112 -51 136 -9 6 -13 18
-9 27 7 20 -25 97 -50 118 -10 9 -76 51 -147 94 -601 365 -1222 863 -1641
1315 -77 83 -141 155 -143 160 -2 6 -58 10 -128 10 l-125 0 68 -82z"/>
            <path d="M17087 4446 c-445 -476 -1165 -1014 -1872 -1399 -131 -71 -142 -80
-163 -122 -12 -25 -22 -57 -22 -71 0 -13 -7 -27 -15 -31 -28 -10 -81 -133 -58
-133 14 0 416 212 553 292 639 373 1231 829 1659 1279 l91 97 0 101 0 101 -33
0 c-30 0 -46 -13 -140 -114z"/>
            <path d="M14657 4250 c-43 -5 -122 -18 -175 -30 -116 -24 -342 -99 -348 -115
-6 -15 24 -85 37 -85 5 0 8 -4 5 -9 -9 -13 26 -92 38 -87 6 3 54 19 108 35
299 96 597 112 863 47 98 -24 258 -83 302 -111 16 -11 23 -12 31 -2 21 26 82
158 77 166 -9 15 -176 92 -264 121 -148 50 -272 70 -441 75 -85 2 -190 0 -233
-5z m413 -104 c94 -16 206 -46 260 -70 49 -21 27 -20 -50 4 -265 83 -626 79
-932 -9 -125 -37 -148 -39 -58 -6 93 34 221 66 325 80 123 18 352 18 455 1z
m330 -96 c8 -5 11 -10 5 -10 -5 0 -17 5 -25 10 -8 5 -10 10 -5 10 6 0 17 -5
25 -10z"/>
            <path d="M14845 3698 c-31 -17 -45 -39 -45 -72 1 -59 50 -94 106 -76 37 13 54
35 54 74 0 38 -10 55 -41 71 -33 18 -47 18 -74 3z m25 -53 c0 -8 -4 -15 -10
-15 -5 0 -10 7 -10 15 0 8 5 15 10 15 6 0 10 -7 10 -15z m50 0 c0 -8 -4 -15
-10 -15 -5 0 -10 7 -10 15 0 8 5 15 10 15 6 0 10 -7 10 -15z m-48 -50 c0 -5
-5 -11 -11 -13 -6 -2 -11 4 -11 13 0 9 5 15 11 13 6 -2 11 -8 11 -13z m48 0
c0 -8 -4 -15 -10 -15 -5 0 -10 7 -10 15 0 8 5 15 10 15 6 0 10 -7 10 -15z"/>

            <path d="M14825 3405 c-31 -30 -32 -73 -4 -109 45 -57 139 -19 139 56 0 39
-40 78 -80 78 -19 0 -40 -9 -55 -25z m45 -41 c0 -8 -4 -12 -10 -9 -5 3 -10 10
-10 16 0 5 5 9 10 9 6 0 10 -7 10 -16z m50 6 c0 -5 -4 -10 -10 -10 -5 0 -10 5
-10 10 0 6 5 10 10 10 6 0 10 -4 10 -10z m-50 -50 c0 -5 -4 -10 -10 -10 -5 0
-10 5 -10 10 0 6 5 10 10 10 6 0 10 -4 10 -10z m50 0 c0 -5 -4 -10 -10 -10 -5
0 -10 5 -10 10 0 6 5 10 10 10 6 0 10 -4 10 -10z"/>
        </g>
        <g fill="#D30102">
            <path  d="M15626 2910 c-32 -22 -62 -40 -66 -40 -5 0 -37 -16 -72 -36 -154 -89
-302 -171 -408 -226 -131 -69 -141 -76 -183 -138 -40 -60 -54 -70 -97 -70 -36
0 -37 1 -54 61 -15 56 -19 62 -61 80 -25 11 -89 45 -143 76 -249 143 -410 238
-440 260 -18 14 -36 22 -39 19 -10 -10 15 -114 42 -170 41 -87 104 -146 279
-265 l163 -111 6 -102 c3 -57 13 -130 22 -163 27 -96 16 -208 -35 -352 -119
-334 -136 -411 -127 -568 7 -118 31 -206 117 -429 61 -159 90 -270 90 -350 0
-49 13 -66 52 -66 73 0 189 260 249 559 13 65 27 111 33 111 7 0 53 -34 104
-76 73 -59 98 -75 120 -72 22 2 28 9 30 34 2 18 -6 48 -17 69 -33 62 -35 128
-11 352 34 303 19 387 -110 625 l-68 126 8 64 c4 35 17 88 29 118 11 30 25 79
31 109 17 90 51 107 195 98 51 -4 108 -2 128 4 46 12 135 100 180 177 50 85
129 313 114 328 -1 2 -29 -15 -61 -36z"/>
        </g>

        <path d="M3315 3663 c-27 -1 -216 -9 -420 -18 -203 -8 -408 -18 -454 -21 l-83
-6 6 -30 c3 -17 6 -49 6 -71 l0 -40 75 5 c41 3 75 2 75 -2 0 -4 -18 -15 -40
-24 l-40 -16 15 -30 c8 -16 15 -34 15 -39 0 -6 -30 -11 -67 -13 l-68 -3 0
-110 0 -110 38 -3 37 -3 0 -55 0 -54 66 0 c60 0 66 -2 61 -19 -4 -17 -77 -144
-183 -321 -18 -30 -30 -58 -26 -62 12 -11 203 -110 206 -106 2 1 53 86 114
188 61 102 118 194 126 205 15 19 15 18 16 -17 l0 -38 156 0 c85 0 153 -4 150
-8 -3 -5 -35 -21 -71 -37 l-67 -28 -88 26 c-49 15 -96 27 -104 27 -11 0 -76
-88 -76 -104 0 -2 14 -9 30 -16 17 -7 30 -16 30 -20 0 -5 -20 -16 -45 -26 -25
-9 -48 -21 -51 -25 -2 -5 9 -35 26 -68 35 -70 18 -70 174 3 55 25 103 46 108
46 6 0 87 -27 180 -60 94 -33 174 -60 178 -60 8 0 75 138 69 144 -2 2 -50 18
-106 35 -57 17 -103 35 -103 39 0 4 29 20 65 36 l65 28 0 94 0 94 -245 0
c-201 0 -245 2 -245 14 0 32 27 36 266 38 l239 3 3 53 3 52 45 0 44 0 0 115 0
115 -60 0 c-33 0 -60 2 -60 4 0 2 9 25 20 51 11 26 20 48 20 49 0 2 -27 11
-60 22 -33 10 -60 22 -60 26 0 4 35 8 78 10 l77 3 3 64 c2 35 -1 67 -5 70 -4
3 -30 5 -58 4z m-190 -242 l-35 -71 -47 0 c-41 0 -45 2 -29 13 17 12 16 15 -3
67 -12 30 -21 60 -21 67 0 17 164 23 168 6 2 -6 -13 -43 -33 -82z m-315 62
c-19 -8 -37 -16 -38 -18 -2 -2 5 -29 17 -60 12 -31 21 -57 21 -60 0 -2 -34 -5
-75 -7 -41 -2 -75 0 -75 5 0 4 3 7 8 7 4 0 13 4 20 9 11 6 7 21 -17 69 l-31
61 28 4 c15 2 61 4 102 5 l75 0 -35 -15z m460 -293 l0 -50 -176 0 c-137 0
-175 3 -171 13 3 6 8 19 12 28 4 12 -2 20 -27 30 l-33 13 65 6 c36 4 125 7
198 8 l132 2 0 -50z m-600 31 c0 -4 -10 -23 -23 -42 -17 -26 -30 -34 -52 -34
-27 0 -30 3 -33 37 -3 37 -3 37 40 41 24 2 49 4 56 5 6 1 12 -2 12 -7z"/>
        <path d="M4927 3663 c-9 -16 -129 -395 -125 -397 6 -5 239 -68 255 -70 12 -1
22 18 37 69 l22 70 82 3 82 3 0 -109 0 -109 -157 -6 c-87 -4 -198 -7 -246 -7
l-88 0 3 -77 3 -78 83 3 c73 3 82 1 82 -15 0 -10 -19 -95 -42 -190 -23 -95
-39 -175 -36 -178 3 -4 21 -9 40 -12 18 -2 83 -13 143 -23 61 -10 113 -16 116
-12 4 4 28 95 54 202 25 107 50 205 55 218 9 20 16 22 100 22 l90 0 2 -212 3
-213 218 -3 217 -2 0 80 0 80 -95 0 -96 0 3 138 3 137 93 3 92 3 0 74 c0 53
-4 75 -12 76 -7 0 -88 0 -180 -1 l-168 -1 0 105 0 106 135 0 135 0 0 80 0 80
-135 0 -135 0 0 80 0 80 -140 0 -140 0 0 -80 0 -80 -56 0 c-49 0 -55 2 -49 18
4 9 9 31 12 48 4 25 1 33 -13 37 -102 30 -233 67 -237 67 -3 0 -8 -3 -10 -7z"/>
        <path d="M6716 3616 c-8 -28 -54 -213 -102 -411 -48 -198 -90 -367 -95 -375
-5 -9 -9 6 -9 41 0 31 -13 116 -30 188 l-29 131 44 150 c33 111 45 167 45 215
l0 65 -245 0 -245 0 2 -547 3 -548 107 -3 108 -3 2 473 3 473 39 3 c21 2 42 0
47 -5 4 -4 -7 -68 -25 -142 l-34 -133 40 -125 c22 -69 37 -128 33 -131 -3 -3
-18 -8 -33 -10 -15 -2 -28 -5 -30 -7 -2 -2 -1 -31 3 -64 l7 -61 94 0 c52 0 94
-2 94 -4 0 -3 -11 -51 -25 -107 -14 -57 -21 -106 -17 -109 7 -7 198 -50 218
-50 6 0 35 99 64 220 30 121 57 220 61 220 3 0 36 -64 74 -142 37 -79 81 -171
97 -205 17 -35 34 -63 40 -63 11 0 158 67 158 72 0 2 -29 63 -65 136 -36 74
-65 135 -65 137 0 2 -38 82 -85 177 -47 95 -85 177 -85 183 -1 5 18 87 42 182
23 95 40 174 38 176 -3 3 -56 16 -118 29 l-112 25 -14 -51z"/>
        <path d="M1757 3647 c-57 -9 -59 -11 -54 -36 12 -61 40 -271 36 -275 -2 -2
-49 -5 -104 -7 l-100 -4 2 54 c2 59 11 71 58 71 17 0 41 3 53 7 23 6 24 8 17
77 -11 116 -5 109 -99 102 -115 -10 -470 -47 -472 -49 -1 -1 4 -42 10 -92 10
-81 13 -90 31 -88 11 1 43 3 70 4 l50 3 3 -52 3 -52 -95 0 -96 0 0 -90 0 -90
95 0 95 0 0 -79 0 -80 -52 -15 c-29 -8 -74 -21 -100 -28 -27 -6 -48 -17 -48
-22 0 -18 33 -131 41 -140 7 -7 94 11 146 31 10 4 13 -9 13 -51 l0 -57 -60 7
-60 7 0 -69 c0 -38 4 -75 9 -83 7 -12 52 -17 190 -25 99 -5 183 -7 186 -4 3 2
6 85 8 184 l2 179 94 27 c52 16 96 30 98 32 6 6 -38 146 -46 146 -3 0 -37 -8
-74 -19 l-67 -18 -6 23 c-14 54 -7 58 114 68 62 5 115 6 118 3 6 -6 44 -240
44 -274 0 -15 -33 -48 -120 -118 -66 -54 -120 -103 -120 -109 0 -7 22 -33 49
-60 l49 -48 82 66 c45 36 85 64 90 61 4 -3 11 -34 15 -70 3 -36 10 -67 14 -69
5 -3 339 71 348 78 6 5 -35 151 -42 151 -6 0 -38 -6 -73 -14 -34 -8 -65 -12
-67 -9 -3 2 -8 24 -11 49 l-6 44 106 84 c58 46 106 86 106 90 -1 3 -23 30 -49
60 l-48 54 -68 -53 c-53 -42 -69 -50 -76 -39 -5 8 -9 21 -9 30 0 9 -3 37 -6
62 l-7 46 114 3 114 3 0 85 0 85 -127 3 c-123 2 -128 3 -133 25 -5 22 -45 281
-45 291 0 8 -65 5 -133 -7z"/>
        <path d="M3950 3335 l0 -325 160 0 160 0 0 325 0 325 -160 0 -160 0 0 -325z"/>
        <path d="M2022 3606 c-35 -12 -64 -25 -65 -29 -3 -23 79 -217 92 -217 28 0
131 43 131 54 0 21 -77 210 -86 212 -5 1 -37 -8 -72 -20z"/>
        <path d="M4403 3432 c-40 -20 -73 -41 -72 -47 0 -5 28 -67 62 -137 l62 -127
83 39 c45 22 82 44 82 50 0 20 -125 260 -135 259 -5 0 -43 -17 -82 -37z"/>
        <path d="M3666 3408 c-57 -199 -95 -353 -87 -358 17 -10 201 -54 206 -49 5 6
105 379 105 395 0 6 -44 21 -97 34 -54 12 -101 24 -105 27 -4 2 -14 -20 -22
-49z"/>

        <path d="M4430 3049 c-144 -58 -621 -246 -740 -291 -58 -22 -109 -43 -114 -48
-10 -10 64 -180 79 -180 13 0 955 367 964 375 7 8 -72 178 -84 180 -6 2 -53
-15 -105 -36z"/>
        <path d="M7778 3083 c-10 -2 -18 -9 -18 -14 0 -6 5 -7 11 -3 7 4 25 7 41 6 15
0 26 4 23 9 -6 9 -27 10 -57 2z"/>
        <path d="M8247 3011 c-11 -47 -27 -107 -38 -133 -22 -56 -22 -58 -10 -58 5 0
12 13 16 29 7 31 70 111 87 111 7 0 9 -21 5 -58 -2 -32 -1 -66 5 -75 10 -18
33 -23 42 -8 3 5 -2 8 -12 7 -14 -1 -17 9 -18 64 0 36 -1 71 -2 78 -3 18 -23
15 -49 -10 -13 -12 -25 -19 -27 -17 -3 3 2 28 10 57 9 28 14 62 12 74 -2 13
-11 -15 -21 -61z"/>
        <path d="M8960 3074 c8 -10 15 -20 16 -22 1 -2 5 1 8 7 4 5 -4 15 -16 22 -22
12 -22 11 -8 -7z"/>
        <path  d="M10057 3084 c-4 -4 -7 -17 -7 -29 0 -12 -13 -68 -30 -123 -34 -116
-38 -147 -9 -82 26 59 66 110 86 110 13 0 14 -9 8 -55 -8 -69 0 -95 28 -94 15
0 17 2 7 6 -25 10 -27 21 -22 94 5 78 -4 86 -53 47 -26 -20 -27 -20 -22 -2 23
87 29 114 25 124 -2 6 -7 8 -11 4z"/>
        <path  d="M11224 3073 c-1 -10 -11 -54 -23 -97 -11 -44 -21 -94 -21 -112 0 -33
22 -60 40 -49 16 10 12 25 -5 19 -22 -9 -20 64 5 154 11 39 20 79 20 87 0 21
-16 19 -16 -2z"/>
        <path d="M12352 3070 c13 -20 28 -27 28 -12 0 10 -22 32 -32 32 -5 0 -3 -9 4
-20z"/>
        <path d="M12944 3078 c-4 -7 -3 -8 5 -4 7 5 23 5 37 2 23 -6 24 -8 24 -109 0
-124 -5 -147 -34 -147 -11 0 -28 -5 -36 -10 -12 -8 -10 -10 10 -9 14 1 35 4
48 7 22 7 23 10 24 136 0 136 -3 146 -49 146 -12 0 -25 -5 -29 -12z"/>
        <path d="M8510 3073 c0 -4 5 -15 10 -23 8 -13 10 -13 10 2 0 9 -4 20 -10 23
-5 3 -10 3 -10 -2z"/>
        <path d="M9150 3059 c7 -11 14 -18 17 -15 8 8 -5 36 -17 36 -7 0 -7 -6 0 -21z"/>
        <path  d="M11410 3072 c0 -5 7 -16 16 -23 14 -12 16 -11 13 5 -4 20 -29 35 -29
18z"/>
        <path d="M12541 3063 c7 -10 15 -20 16 -22 2 -2 3 5 3 17 0 14 -6 22 -16 22
-14 0 -15 -3 -3 -17z"/>
        <path d="M7757 3033 c-13 -12 -8 -208 5 -221 7 -7 26 -12 43 -11 l30 1 -32 9
c-31 9 -31 10 -38 94 -4 46 -4 96 -1 110 6 25 5 30 -7 18z"/>
        <path d="M8476 2904 c-19 -87 -19 -94 -6 -94 6 0 10 12 10 28 0 15 7 51 14 79
8 29 11 55 7 58 -5 2 -15 -29 -25 -71z"/>
        <path d="M8953 2966 c7 -17 -18 -192 -32 -229 -13 -33 -28 -42 -47 -26 -12 10
-13 9 -8 -5 3 -9 16 -16 28 -16 31 0 45 34 62 149 8 52 17 105 20 118 5 17 2
23 -11 23 -11 0 -15 -5 -12 -14z"/>
        <path d="M9124 2972 c2 -4 -2 -34 -10 -67 -16 -69 -17 -95 -5 -95 4 0 11 24
15 53 3 28 9 67 12 85 4 21 2 32 -5 32 -7 0 -10 -3 -7 -8z"/>
        <path d="M9361 2958 c-21 -19 -24 -20 -33 -5 -5 10 -17 17 -26 17 -16 -1 -16
-1 1 -11 21 -12 22 -35 2 -82 -17 -41 -19 -57 -6 -57 4 0 18 27 30 61 16 41
30 64 47 71 13 6 26 9 29 7 2 -3 -1 -33 -7 -67 -9 -50 -9 -65 2 -75 10 -10 12
-9 7 5 -3 10 1 43 9 74 11 43 12 60 3 70 -16 20 -32 17 -58 -8z"/>
        <path d="M9581 2955 c-25 -33 -46 -98 -38 -119 8 -20 41 -21 57 -1 17 21 30
19 30 -6 0 -11 -16 -35 -35 -52 -19 -17 -35 -39 -35 -48 0 -23 26 -49 49 -49
15 0 19 13 25 83 4 45 14 108 23 140 9 32 14 60 11 62 -2 3 -18 8 -35 11 -25
5 -34 1 -52 -21z m69 -6 c0 -44 -71 -132 -91 -112 -16 16 10 90 38 113 24 18
53 17 53 -1z m-38 -245 c-8 -14 -10 -14 -25 1 -22 22 -21 31 6 58 l22 22 3
-32 c2 -18 -1 -40 -6 -49z"/>
        <path d="M10300 2960 c-40 -40 -54 -116 -25 -140 35 -29 100 56 93 124 -4 39
-37 47 -68 16z m53 -34 c-4 -61 -57 -119 -78 -86 -18 29 41 137 69 127 6 -2
10 -21 9 -41z"/>
        <path d="M10551 2958 c-21 -19 -24 -20 -33 -5 -5 10 -17 17 -26 17 -16 -1 -16
-1 1 -11 21 -12 22 -35 2 -82 -17 -42 -19 -57 -6 -57 5 0 17 22 25 48 18 53
48 92 72 92 12 0 13 -7 7 -37 -11 -56 -10 -106 3 -110 7 -2 10 6 7 22 -3 14 0
46 6 71 18 70 -12 96 -58 52z"/>
        <path d="M10778 2963 c-65 -74 -61 -185 5 -133 34 27 41 25 32 -7 -4 -16 -7
-42 -6 -59 1 -17 -2 -41 -7 -53 -7 -19 -9 -20 -27 -7 -20 15 -20 16 -2 48 l19
33 -21 -19 c-37 -34 -19 -93 26 -84 15 3 19 17 25 78 4 41 15 104 23 139 13
52 14 66 3 72 -22 14 -54 10 -70 -8z m62 -14 c0 -18 -38 -84 -59 -103 -16 -15
-24 -17 -33 -8 -15 15 16 97 44 116 21 15 48 11 48 -5z"/>
        <path d="M11392 2973 c1 -5 -4 -32 -10 -61 -14 -62 -15 -102 -4 -102 5 0 9 17
10 38 1 20 6 53 12 72 13 44 13 60 0 60 -5 0 -9 -3 -8 -7z"/>
        <path d="M11628 2960 c-22 -17 -27 -17 -32 -5 -3 8 -13 15 -21 15 -15 0 -15
-1 -1 -16 20 -19 20 -26 1 -71 -16 -39 -20 -77 -6 -69 4 3 14 26 21 51 7 25
22 57 32 70 23 30 62 35 54 8 -19 -62 -23 -103 -12 -118 12 -17 15 -1 19 105
2 53 -15 62 -55 30z"/>
        <path d="M11854 2958 c-32 -34 -44 -63 -44 -101 0 -43 20 -53 53 -26 26 19 42
25 33 11 -2 -4 -7 -37 -11 -72 -7 -73 -16 -88 -36 -64 -11 14 -11 21 5 47 l18
32 -21 -19 c-35 -32 -22 -86 20 -86 20 0 29 20 29 68 0 20 9 78 19 127 10 50
18 91 17 92 -2 2 -16 5 -32 9 -22 4 -34 0 -50 -18z m60 -22 c-9 -29 -41 -81
-60 -96 -43 -37 -39 59 5 107 26 28 65 21 55 -11z"/>
        <path  d="M12349 2973 c-1 -5 -1 -12 0 -17 4 -19 -30 -219 -40 -238 -7 -13 -17
-18 -30 -15 -10 3 -19 1 -19 -4 0 -5 11 -9 26 -9 34 0 48 36 68 173 9 59 16
110 16 112 0 8 -20 6 -21 -2z"/>
        <path d="M12512 2928 c-22 -106 -23 -118 -15 -118 5 0 14 28 20 63 7 34 15 72
19 85 3 12 2 22 -3 22 -6 0 -15 -24 -21 -52z"/>
        <path d="M12753 2959 c-20 -20 -23 -21 -29 -6 -3 9 -16 17 -28 17 -19 -1 -19
-2 -3 -11 21 -12 22 -45 1 -94 -8 -20 -13 -39 -10 -42 10 -11 26 9 32 43 7 39
48 94 70 94 17 0 17 -5 3 -71 -9 -41 -8 -54 2 -65 12 -11 14 -6 17 34 1 26 3
63 5 82 2 28 -2 36 -18 38 -11 1 -30 -7 -42 -19z"/>
        <path d="M8002 2963 c-37 -7 -15 -22 24 -16 l36 6 -46 -63 c-25 -34 -46 -65
-46 -69 0 -3 27 -6 60 -6 33 0 60 3 60 8 0 4 -20 7 -45 7 -25 0 -45 4 -45 9 0
5 18 33 40 62 22 30 40 57 40 61 0 8 -38 9 -78 1z"/>

        <path d="M8192 2503 c-16 -43 -51 -135 -78 -206 -26 -70 -51 -124 -55 -120 -4
5 -19 37 -34 73 -15 36 -28 66 -29 68 -2 1 -33 -12 -70 -28 -54 -25 -66 -34
-61 -48 18 -43 27 -73 24 -76 -9 -8 -140 -16 -136 -9 2 4 30 52 62 106 l57 97
114 0 114 0 0 75 0 75 -295 0 -295 0 0 -75 0 -75 71 0 71 0 -20 -32 c-10 -18
-42 -69 -70 -113 l-50 -80 10 -65 c5 -36 13 -68 16 -72 4 -3 99 1 211 9 210
16 211 16 224 -20 1 -5 33 4 70 19 62 25 68 30 62 52 -7 27 1 26 84 -10 l45
-19 -58 -58 -59 -59 62 -71 61 -71 -71 -141 c-38 -78 -69 -145 -67 -150 3 -9
163 -79 180 -79 5 0 29 43 55 95 26 52 52 94 58 92 5 -2 41 -39 78 -83 38 -43
74 -80 81 -82 6 -1 35 21 63 50 l53 53 -100 115 c-75 86 -98 119 -94 134 4 10
44 96 91 189 46 93 81 173 76 178 -4 4 -30 17 -58 27 -27 11 -67 27 -87 36
l-38 16 -70 -140 c-39 -77 -73 -140 -77 -140 -3 0 -20 17 -38 37 -26 30 -30
40 -19 48 7 5 28 53 47 105 40 112 29 106 230 116 l127 6 0 42 c0 22 -3 58 -7
79 l-6 39 -118 -7 c-133 -8 -132 -9 -103 60 8 20 14 38 12 40 -2 1 -46 17 -98
35 -52 18 -100 35 -107 37 -6 3 -23 -28 -41 -74z"/>
        <path d="M11403 2531 c-82 -105 -253 -341 -253 -348 1 -12 152 -123 160 -118
4 2 47 59 95 125 l88 121 23 -22 c12 -11 58 -61 101 -110 43 -49 83 -89 89
-89 6 0 19 9 29 20 42 46 45 33 45 -190 l0 -210 58 0 c32 0 61 -2 64 -5 3 -3
-12 -51 -33 -107 -22 -56 -39 -108 -39 -114 0 -7 29 -26 64 -42 109 -51 99
-56 137 58 19 55 37 100 42 100 4 0 47 -40 95 -90 l87 -90 52 48 52 47 -92 98
c-51 54 -95 97 -98 97 -4 0 -21 -13 -40 -29 -18 -17 -35 -28 -37 -26 -5 5 88
267 99 280 5 5 9 -42 9 -108 l0 -117 60 0 60 0 0 280 0 280 -86 0 -86 0 5 28
c16 79 20 82 102 82 l75 0 0 70 0 70 -275 0 -275 0 0 -70 0 -70 95 0 c52 0 95
-4 95 -8 0 -5 -7 -29 -16 -55 l-16 -47 -79 -1 c-43 -1 -83 -2 -89 -3 -15 -2
-169 177 -170 196 0 14 -55 56 -147 111 -7 4 -26 -12 -50 -42z m797 -446 c0
-53 -5 -54 -78 -24 -28 12 -57 19 -64 16 -7 -2 -33 -59 -57 -125 -25 -66 -48
-119 -51 -117 -4 3 -5 280 -1 293 1 1 57 2 126 2 l125 0 0 -45z"/>
        <path d="M10062 2345 c-61 -124 -112 -229 -112 -234 0 -4 34 -23 75 -41 41
-18 75 -35 75 -37 0 -2 -23 -46 -52 -96 -46 -83 -52 -99 -56 -166 l-4 -74 213
8 c118 4 218 10 222 14 5 5 7 32 5 62 l-3 54 -93 3 c-74 2 -93 6 -89 16 3 8
34 58 69 113 114 175 112 170 91 181 -10 5 -42 18 -72 28 -29 10 -55 23 -57
29 -3 6 25 66 61 133 36 68 65 124 65 126 0 5 -208 106 -218 106 -4 0 -58
-101 -120 -225z"/>
        <path d="M8837 2553 c-4 -3 -7 -26 -7 -50 l0 -43 -50 0 -51 0 3 -72 3 -73 45
0 c44 0 45 -1 48 -35 2 -27 -11 -61 -58 -149 -33 -62 -60 -117 -60 -122 0 -5
18 -18 40 -29 l40 -20 2 -193 3 -192 159 4 c87 2 166 4 175 6 14 2 16 26 16
196 l0 194 -123 3 -122 3 15 29 16 30 129 0 130 0 -2 -242 -3 -243 -52 3 -53
4 0 -65 0 -65 83 -6 c45 -4 108 -9 140 -12 l57 -6 0 251 c0 138 3 251 7 251
13 0 132 -135 132 -150 1 -8 -26 -75 -59 -149 -33 -74 -59 -136 -57 -137 12
-12 203 -91 208 -86 3 4 21 44 39 90 18 45 36 85 41 88 5 3 42 -29 81 -71 l71
-76 50 50 50 50 -91 100 c-51 56 -92 105 -92 110 0 6 38 98 84 206 l84 196
-51 23 c-100 44 -148 59 -156 50 -4 -5 -34 -71 -67 -146 -32 -76 -63 -138 -67
-138 -5 0 -31 25 -59 56 l-51 55 -49 -48 -48 -47 0 72 c0 40 3 72 6 72 4 0 49
-12 100 -26 52 -14 98 -23 103 -20 5 4 19 48 32 100 25 107 25 106 138 106 31
0 80 3 109 6 l52 7 0 46 c0 95 2 93 -119 90 l-106 -4 1 25 c1 14 5 41 9 61 l7
36 -94 26 c-52 15 -99 27 -105 27 -6 0 -13 -12 -17 -27 -19 -88 -106 -416
-110 -421 -3 -3 -6 11 -6 31 l0 37 -164 0 c-128 0 -166 3 -175 14 -6 8 -26 20
-44 27 l-32 14 40 5 c28 4 39 10 37 19 -2 8 -1 24 2 35 5 19 11 21 65 18 59
-4 60 -4 63 -35 l3 -32 70 0 70 0 3 33 c3 33 9 36 80 35 21 0 22 4 22 73 l0
74 -49 0 -50 0 -3 48 -3 47 -72 3 -73 3 0 -51 0 -50 -59 0 c-65 0 -71 6 -71
66 l0 34 -88 0 c-49 0 -92 -3 -95 -7z m203 -772 c0 -84 -4 -91 -56 -91 -23 0
-24 2 -24 85 l0 85 40 0 40 0 0 -79z"/>
        <path d="M12897 2554 c-4 -4 -7 -49 -7 -101 l0 -93 -200 0 -200 0 0 -385 0
-385 145 0 145 0 2 308 3 307 53 3 52 3 0 -48 c1 -26 2 -208 3 -403 l2 -355
138 -3 137 -3 0 406 0 405 75 0 75 0 0 -265 0 -265 -40 0 -40 0 0 -64 c0 -36
3 -67 8 -69 4 -3 69 -8 145 -12 l137 -7 0 395 0 395 -47 18 c-35 13 -85 19
-180 21 l-132 4 -3 97 -3 97 -131 3 c-71 1 -133 -1 -137 -4z"/>
        <path d="M10477 2473 c-3 -5 -4 -39 -3 -78 l1 -70 88 -3 87 -3 0 -358 0 -359
-95 -7 -95 -7 0 -74 0 -74 88 0 c48 0 198 3 335 7 l247 6 0 79 0 79 -102 -2
-103 -2 -3 334 c-1 184 0 344 3 357 5 21 11 22 86 22 l80 0 -3 78 -3 77 -302
3 c-166 1 -304 -1 -306 -5z"/>
        <path d="M1660 2240 c-10 -6 -2 -9 28 -8 23 0 39 4 36 9 -7 12 -45 11 -64 -1z"/>
        <path d="M2862 2230 c13 -20 28 -27 28 -12 0 10 -22 32 -32 32 -5 0 -3 -9 4
-20z"/>
        <path d="M3520 2226 c0 -13 -12 -64 -26 -112 -32 -105 -43 -174 -19 -109 18
48 71 115 90 115 11 0 13 -15 8 -70 -5 -60 -3 -70 11 -76 10 -4 22 -2 29 5 8
8 5 11 -11 11 -21 0 -22 3 -15 75 5 68 4 75 -12 75 -10 0 -29 -10 -42 -22 -28
-26 -29 -16 -8 62 18 66 18 70 5 70 -5 0 -10 -11 -10 -24z"/>
        <path d="M4670 2230 c13 -23 20 -26 20 -6 0 8 -7 16 -15 20 -13 4 -14 2 -5
-14z"/>
        <path d="M5641 2201 c-11 -27 -21 -54 -21 -60 0 -6 -12 -8 -28 -5 -24 5 -34 0
-55 -26 -32 -37 -38 -109 -11 -131 14 -11 20 -9 41 15 13 16 25 27 27 25 2 -2
9 -14 15 -26 6 -13 19 -23 29 -23 16 1 16 1 1 10 -44 26 -28 129 39 263 2 4
-1 7 -6 7 -5 0 -19 -22 -31 -49z m-43 -102 c2 -26 -36 -100 -55 -107 -20 -6
-27 26 -14 68 20 67 63 92 69 39z"/>
        <path d="M6070 2229 c7 -11 14 -18 17 -15 8 8 -5 36 -17 36 -7 0 -7 -6 0 -21z"/>
        <path d="M6215 2240 c-3 -6 1 -7 10 -4 8 3 26 3 39 0 24 -6 24 -7 22 -119 -1
-62 -6 -119 -10 -125 -4 -7 -18 -12 -31 -12 -13 0 -27 -5 -31 -11 -8 -13 75
-2 91 12 6 6 6 9 0 9 -6 0 -9 49 -7 121 3 94 1 124 -10 130 -18 12 -65 11 -73
-1z"/>
        <path d="M11453 2179 c-29 -22 -53 -44 -53 -49 0 -5 16 -35 35 -67 19 -32 35
-61 35 -65 0 -4 -48 -9 -107 -10 l-108 -3 0 -70 0 -70 123 2 c78 1 122 -2 122
-8 0 -16 -60 -100 -76 -106 -7 -3 -27 5 -43 16 -16 12 -33 21 -38 21 -9 -1
-93 -116 -93 -128 1 -14 338 -234 349 -227 13 7 91 111 91 119 0 3 -25 22 -55
42 -30 20 -55 41 -55 47 0 5 34 62 75 126 77 121 84 142 69 219 l-6 31 -100 3
-100 3 46 33 c25 18 46 37 46 41 0 12 -84 134 -95 138 -6 1 -34 -15 -62 -38z"/>
        <path d="M1636 2169 c-3 -17 -3 -69 0 -115 8 -92 18 -104 72 -88 26 7 25 8
-13 13 l-40 6 0 108 c0 107 -7 135 -19 76z"/>
        <path d="M4480 2136 c-5 -15 -10 -32 -10 -37 0 -14 -16 -11 -30 6 -7 8 -19 15
-27 15 -8 0 -3 -9 14 -24 l27 -24 -19 -37 c-11 -20 -26 -39 -32 -42 -7 -3 -13
-10 -13 -17 1 -6 18 8 40 32 l39 43 25 -38 c14 -21 26 -33 26 -27 0 6 -11 28
-25 48 -24 35 -24 37 -9 77 9 22 14 43 11 46 -4 3 -11 -6 -17 -21z"/>
        <path d="M3268 2134 c-27 -14 -48 -42 -48 -64 0 -6 19 -19 43 -29 23 -10 49
-26 57 -36 14 -17 12 -18 -39 -13 -48 5 -52 4 -36 -8 21 -16 73 -18 94 -5 24
15 4 40 -54 68 -30 15 -55 30 -55 34 0 9 50 49 61 49 5 0 18 -10 30 -22 19
-20 21 -21 17 -4 -1 10 -12 24 -23 32 -17 10 -25 10 -47 -2z"/>
        <path d="M1864 2132 c4 -7 13 -42 20 -79 13 -73 30 -90 46 -46 23 61 21 59 31
38 5 -11 13 -33 19 -49 9 -25 13 -27 24 -15 16 16 58 152 45 143 -5 -3 -16
-29 -25 -59 -8 -30 -19 -57 -24 -60 -9 -6 -30 55 -30 88 0 36 -20 15 -35 -38
-9 -30 -20 -53 -24 -50 -5 2 -11 28 -14 57 -4 28 -14 59 -23 67 -9 9 -14 10
-10 3z"/>
        <path d="M2198 2123 c-41 -47 -54 -135 -22 -147 41 -16 104 81 90 139 -8 30
-45 34 -68 8z m52 -26 c0 -43 -32 -102 -56 -102 -35 0 -31 61 7 108 29 37 49
35 49 -6z"/>
        <path d="M2627 2122 c-37 -41 -50 -128 -21 -139 9 -3 25 -1 35 5 14 9 20 8 27
-5 6 -9 14 -13 22 -8 10 6 9 9 -1 15 -10 7 -10 19 0 64 11 48 10 58 -3 71 -19
20 -39 19 -59 -3z m49 -17 c8 -21 -13 -79 -37 -101 -17 -16 -22 -16 -30 -4
-19 30 16 120 47 120 8 0 17 -7 20 -15z"/>
        <path d="M2842 2135 c3 -3 -1 -31 -8 -63 -8 -31 -14 -67 -14 -79 0 -36 17 -27
18 10 1 17 6 48 12 67 13 46 13 70 -2 70 -6 0 -9 -2 -6 -5z"/>
        <path d="M3772 2133 c-39 -15 -61 -143 -27 -157 8 -3 22 2 30 11 15 14 17 14
30 -3 13 -18 14 -18 32 -1 17 17 17 18 1 11 -21 -7 -24 20 -7 79 9 33 8 41 -8
53 -19 14 -30 16 -51 7z m42 -28 c13 -35 -46 -130 -68 -108 -21 22 14 123 43
123 10 0 22 -7 25 -15z"/>
        <path d="M3991 2116 c-41 -44 -51 -126 -15 -140 42 -16 92 70 86 147 -3 25
-44 22 -71 -7z m53 -30 c-2 -41 -31 -89 -58 -94 -27 -6 -21 65 10 105 32 42
49 38 48 -11z"/>
        <path d="M4635 2059 c-9 -44 -15 -83 -12 -86 10 -9 26 7 21 22 -3 7 2 41 10
75 19 72 18 70 7 70 -4 0 -16 -36 -26 -81z"/>
        <path d="M4848 2123 c-26 -30 -38 -60 -38 -96 0 -44 19 -62 45 -43 17 12 21
12 31 -3 10 -13 15 -14 25 -3 10 9 10 12 1 12 -15 0 -15 32 0 82 10 34 9 40
-8 53 -25 19 -38 19 -56 -2z m41 -61 c-14 -50 -44 -81 -60 -65 -16 16 -3 75
23 108 18 23 23 25 35 12 12 -12 13 -21 2 -55z"/>
        <path d="M5107 2120 c-21 -17 -26 -18 -31 -5 -3 8 -10 15 -16 15 -6 0 -6 -7 2
-20 10 -15 9 -28 -5 -67 -19 -54 -21 -63 -8 -63 4 0 18 27 30 60 33 91 96 121
72 34 -18 -65 -15 -94 12 -94 17 0 19 2 8 9 -12 8 -13 20 -4 68 6 32 8 64 6
70 -7 19 -37 16 -66 -7z"/>
        <path d="M5787 2133 c-13 -21 -18 -122 -8 -142 21 -38 64 -21 86 34 8 19 9 18
13 -5 4 -28 20 -50 34 -50 5 0 2 10 -6 22 -20 28 -20 54 -1 107 23 65 3 48
-35 -31 -26 -55 -40 -73 -55 -73 -18 0 -20 6 -17 73 2 68 -1 82 -11 65z"/>
        <path d="M6035 2059 c-9 -44 -15 -83 -12 -86 10 -9 26 7 21 22 -3 7 2 41 10
75 19 72 18 70 7 70 -4 0 -16 -36 -26 -81z"/>
        <path d="M7705 1981 c-3 -2 -5 -22 -5 -43 l0 -38 -90 0 -90 0 0 -75 0 -75 90
0 91 0 -3 -82 -3 -83 -45 -2 c-25 -2 -69 -5 -97 -9 l-53 -5 0 -57 c0 -31 4
-63 9 -70 7 -11 56 -10 286 7 153 12 279 22 280 24 0 1 -1 33 -3 70 l-4 69
-66 -4 -67 -3 0 70 0 70 68 3 68 3 -3 72 -3 72 -67 3 -68 3 0 45 0 45 -110 -2
c-61 -2 -113 -5 -115 -8z"/>
        <path  d="M10215 1604 c-93 -13 -185 -26 -202 -29 l-33 -6 0 -74 c0 -65 2 -75
18 -74 9 0 112 10 227 22 l210 22 3 83 3 82 -28 -1 c-15 -1 -104 -12 -198 -25z"/>
    </g>
</svg>
